<svg xmlns="http://www.w3.org/2000/svg" xmlns:xlink="http://www.w3.org/1999/xlink" width="30" height="30" viewBox="0 0 30 30"><defs><path id="7qzba" d="M1440 63v4.5a.5.5 0 0 1-.5.5h-7a.5.5 0 0 1-.5-.5v-1.87l-4.433-7.98a4.514 4.514 0 0 1-.567-2.186V46a2 2 0 0 1 4 0v6.559c.68-.175 1.4.047 1.865.573l3.454 3.838a7.423 7.423 0 0 1 3.67 6.03zm-1 .362a6.408 6.408 0 0 0-3.221-5.55.719.719 0 0 1-.15-.115l-3.507-3.896-.034-.036a.908.908 0 0 0-1.315 1.256l4.097 4.506-.74.672-4.096-4.506a1.9 1.9 0 0 1-.034-2.516V46a1 1 0 0 0-2 0v9.464c0 .594.152 1.179.44 1.7l4.497 8.093a.505.505 0 0 1 .063.244V67h6zM1457 46v9.412a4.5 4.5 0 0 1-.621 2.28L1452 65.63V67.5a.5.5 0 0 1-.5.5h-7a.5.5 0 0 1-.5-.5V63h.012a7.407 7.407 0 0 1 3.67-6.032l3.453-3.836c.35-.391.845-.62 1.37-.632.166-.002.333.018.495.059v-6.56a2 2 0 0 1 4 0zm-1 9.412V46a1 1 0 0 0-2 0v7.177a1.9 1.9 0 0 1-.033 2.517l-4.097 4.505-.74-.673 4.098-4.506a.91.91 0 0 0-1.35-1.22l-3.506 3.9a.505.505 0 0 1-.125.1 6.419 6.419 0 0 0-3.247 5.562v3.639h6v-1.5c0-.085.02-.168.06-.243l4.45-8.06c.32-.541.49-1.158.49-1.786zM1448.5 51a5.505 5.505 0 0 1-5.5 5.5h-.5v4h-1v-4h-.5a5.505 5.505 0 0 1-5.5-5.5.5.5 0 0 1 .5-.5h1a5.497 5.497 0 0 1 4.5 2.35V49.5h-.5a5.506 5.506 0 0 1-5.5-5.5.5.5 0 0 1 .5-.5h1a5.494 5.494 0 0 1 4.5 2.35V42.5h-.5a4.005 4.005 0 0 1-4-4 .5.5 0 0 1 .5-.5h1a4 4 0 0 1 3.5 2.068 4.001 4.001 0 0 1 3.5-2.069h1a.5.5 0 0 1 .5.502 4.004 4.004 0 0 1-4 3.999h-.5v3.35a5.494 5.494 0 0 1 4.5-2.35h1a.5.5 0 0 1 .5.5 5.506 5.506 0 0 1-5.5 5.5h-.5v3.35a5.496 5.496 0 0 1 4.5-2.35h1a.5.5 0 0 1 .5.5zm-5.973-2.5h.473a4.507 4.507 0 0 0 4.473-4H1447a4.507 4.507 0 0 0-4.473 4zm.014-7h.459a3.004 3.004 0 0 0 2.959-2.5h-.459a3.005 3.005 0 0 0-2.958 2.5zm-1.083 0a3.005 3.005 0 0 0-2.958-2.5h-.458a3.004 3.004 0 0 0 2.958 2.5zm.015 7a4.507 4.507 0 0 0-4.473-4h-.472a4.507 4.507 0 0 0 4.472 4zm0 7a4.506 4.506 0 0 0-4.473-4h-.472a4.508 4.508 0 0 0 4.472 4zm6-4H1447a4.506 4.506 0 0 0-4.473 4h.473a4.508 4.508 0 0 0 4.473-4z"/></defs><g><g transform="translate(-1427 -38)"><use fill="#81a413" xlink:href="#7qzba"/></g></g></svg>