<svg xmlns="http://www.w3.org/2000/svg" xmlns:xlink="http://www.w3.org/1999/xlink" width="30" height="28" viewBox="0 0 30 28"><defs><path id="qrvqa" d="M1764.5 53.186c0-.281.223-.509.5-.509h6.5c.277 0 .5.228.5.509 0 .28-.223.508-.5.508h-6.5a.504.504 0 0 1-.5-.508zm14 3.05c0 .28-.224.509-.5.509h-13a.504.504 0 0 1-.5-.509c0-.28.223-.51.5-.51h13c.276 0 .5.23.5.51zm0 3.051c0 .28-.224.508-.5.508h-13a.504.504 0 0 1-.5-.508c0-.281.223-.509.5-.509h13c.276 0 .5.228.5.51zm11.5-14.236V55.8c0 1.662-1.33 3.014-2.965 3.014h-.535v5.084a.508.508 0 0 1-.5.508.499.499 0 0 1-.37-.166L1783 61.3v.058c0 1.662-1.33 3.014-2.965 3.014l-8.313.035-4.852 5.428a.496.496 0 0 1-.55.13.506.506 0 0 1-.32-.472v-5.085h-3.035c-1.635 0-2.965-1.352-2.965-3.015V50.644c0-1.663 1.33-3.015 2.965-3.015l4.035-.008v-2.606c0-1.662 1.33-3.015 2.965-3.015l17.071.036c1.634 0 2.964 1.353 2.964 3.015zm-8 5.557c0-1.102-.882-1.999-1.965-1.999l-12.534.026h-.001l-4.534.01c-1.085 0-1.966.897-1.966 1.999v10.748c0 1.102.881 1.998 1.965 1.998h3.535c.276 0 .5.228.5.507v4.279l4.13-4.62a.496.496 0 0 1 .368-.166l8.535-.036c1.085 0 1.967-.896 1.967-1.997zm7 5.191V45.051c0-1.102-.881-1.999-1.965-1.999l-17.071-.035c-1.082 0-1.964.895-1.964 1.998v2.604l12.034-.025c1.636 0 2.966 1.351 2.966 3.014v9.18l2.5 2.795v-4.278c0-.28.224-.509.5-.509h1.035c1.084 0 1.965-.895 1.965-1.997z"/></defs><g><g transform="translate(-1760 -42)"><use fill="#81a413" xlink:href="#qrvqa"/></g></g></svg>