<svg xmlns="http://www.w3.org/2000/svg" xmlns:xlink="http://www.w3.org/1999/xlink" width="28" height="30" viewBox="0 0 28 30"><defs><path id="u9s5a" d="M1588.417 68h-26.84c-.465-2.008-1.577-11.858 9.035-15.437-1.754-2.054-2.849-5.043-2.849-7.305 0-4.004 3.243-7.259 7.234-7.259 3.99 0 7.234 3.255 7.234 7.259 0 2.262-1.095 5.25-2.849 7.305 6.427 1.884 10.618 8.557 9.035 15.437zm-19.488-24.29l1.46-1.027a5.069 5.069 0 0 1 5.462-.23s2.442 1.86 4.85.212a6.26 6.26 0 0 0-5.704-3.697c-2.925 0-5.38 2.025-6.068 4.743zm6.068 10.252c3.46 0 6.268-5.273 6.268-8.71a6.37 6.37 0 0 0-.23-1.653c-2.983 1.753-5.673-.313-5.673-.313a4.106 4.106 0 0 0-4.42.188l-2.202 1.554c-.005.077-.011.153-.011.23 0 3.437 2.807 8.704 6.268 8.704zm8.546 1.908a13.701 13.701 0 0 1-1.412 3.472 1.934 1.934 0 0 1-1.354 3.313 1.934 1.934 0 0 1-1.93-1.936c0-1.07.865-1.937 1.93-1.937.182 0 .353.035.518.082a12.594 12.594 0 0 0 1.413-3.644 11.958 11.958 0 0 0-4.103-1.884c-1.054.963-2.278 1.578-3.614 1.578-1.336 0-2.56-.615-3.614-1.578a12.17 12.17 0 0 0-3.572 1.525 12.71 12.71 0 0 0 1.183 4.115 3.852 3.852 0 0 1 4.82 2.398l.8 2.285-1.818.644-.318-.916.912-.318-.476-1.37a2.895 2.895 0 0 0-3.69-1.777 2.908 2.908 0 0 0-1.772 3.702l.482 1.37.912-.319.318.916-1.818.643-.8-2.28a3.88 3.88 0 0 1 1.582-4.552 13.775 13.775 0 0 1-1.2-3.904c-3.414 2.628-5.268 6.992-4.538 11.533h25.232a12.17 12.17 0 0 0-4.073-11.161zm-2.76 3.904a.968.968 0 0 0 0 1.936.967.967 0 1 0 0-1.937z"/></defs><g><g transform="translate(-1561 -38)"><use fill="#81a413" xlink:href="#u9s5a"/></g></g></svg>