<svg xmlns="http://www.w3.org/2000/svg" xmlns:xlink="http://www.w3.org/1999/xlink" width="19" height="23" viewBox="0 0 19 23"><defs><path id="d1r0a" d="M1646.903 393.937c-1.713-2.07-1.428-5.612-1.397-5.95.111-2.557 1.25-3.771 2.184-4.34.93-.565 1.9-.652 2.393-.652h.075c.899.023 1.704.248 2.393.675.925.567 2.046 1.778 2.157 4.317.031.338.316 3.88-1.396 5.95-.779.937-1.833 1.427-3.136 1.455h-.142c-1.303-.028-2.358-.518-3.131-1.455zm.894-.856c.556.676 1.307 1.016 2.286 1.023h.044c.983-.007 1.73-.347 2.29-1.023 1.415-1.702 1.104-4.942 1.1-4.974-.005-.01-.005-.026-.005-.04-.138-3.23-2.18-3.75-3.38-3.78h-.054c-.97 0-3.233.37-3.38 3.78 0 .01-.004.024-.004.04-.005.026-.307 3.28 1.103 4.974zm11.235 10.338a.627.627 0 0 1-.232.301c-.133.09-3.331 2.277-8.682 2.277-5.35 0-8.548-2.183-8.682-2.277a.602.602 0 0 1-.231-.3c-.236-.639-.231-1.91-.227-2.156v-.015c.005-.037.005-.075.005-.119.026-.941.084-3.144 2.015-3.856.013-.002.026-.008.044-.013 2.015-.55 3.674-1.785 3.692-1.799a.57.57 0 0 1 .836.159.664.664 0 0 1-.147.89c-.076.055-1.846 1.379-4.06 1.988-1.037.397-1.153 1.583-1.184 2.668 0 .045-.004.082-.004.12-.01.426.022 1.09.093 1.47.725.44 3.567 1.957 7.846 1.957 4.296 0 7.12-1.512 7.841-1.95.071-.38.098-1.045.094-1.47-.005-.041-.005-.08-.005-.12-.03-1.088-.147-2.272-1.183-2.671-2.215-.61-3.985-1.93-4.06-1.987a.667.667 0 0 1-.147-.893.575.575 0 0 1 .836-.157c.017.015 1.685 1.25 3.691 1.8.014.006.031.009.045.013 1.93.707 1.988 2.91 2.015 3.855 0 .042.004.08.004.119v.016c.005.246.01 1.517-.213 2.15z"/></defs><g><g transform="translate(-1641 -383)"><use fill="#00932c" xlink:href="#d1r0a"/></g></g></svg>