<svg xmlns="http://www.w3.org/2000/svg" xmlns:xlink="http://www.w3.org/1999/xlink" width="21" height="24" viewBox="0 0 21 24"><defs><path id="pht5a" d="M1659.604 477.154c.427.56.612 1.184.539 1.804-.073.615-.394 1.178-.932 1.634-.234.198-.471.385-.703.562-.339.265-.662.514-.95.793-.005.012-.016.017-.021.025-.83.731-1.814 1.023-2.926.882-.096-.012-.202-.032-.302-.048-1.64-.318-3.042-1.15-4.085-1.833-2.727-1.821-5.021-4.2-6.821-7.076-1.482-2.386-2.408-4.549-2.93-6.828-.213-.93-.466-2.337-.178-3.778a3.682 3.682 0 0 1 1.32-2.184l1.84-1.503.011-.01c.539-.416 1.137-.599 1.725-.524.587.074 1.116.4 1.526.94.278.337.543.694.796 1.043.126.178.26.357.392.529l1.153 1.53c.887 1.17.726 2.526-.41 3.445-.15.122-.302.252-.454.373-.401.33-.813.672-1.252.994.214.71.54 1.428 1.048 2.288 1.055 1.739 2.206 3.126 3.52 4.24.13.113.283.217.446.33.112.077.23.16.347.246l1.708-1.376c.547-.446 1.146-.633 1.738-.561.598.076 1.13.419 1.537.98zm-1.036.824l-2.328-3.086c-.005-.003-.005-.003-.009-.008-.13-.19-.352-.415-.65-.456-.304-.033-.588.137-.772.285l-1.85 1.495c-.091.075-.372.306-.772.253a1.027 1.027 0 0 1-.462-.188c-.018-.009-.036-.028-.054-.04a5.93 5.93 0 0 0-.445-.323 7.057 7.057 0 0 1-.553-.41c-1.426-1.208-2.67-2.707-3.799-4.575l-.004-.005c-.618-1.054-1.004-1.922-1.244-2.823l-.01-.047c-.052-.294-.08-.724.385-1.103.006-.01.017-.012.027-.017.466-.336.898-.689 1.354-1.062.156-.122.308-.25.465-.38.573-.46.63-.951.183-1.544l-1.154-1.524c-.134-.185-.27-.365-.4-.544a22.274 22.274 0 0 0-.76-1c-.005-.01-.01-.012-.013-.02-.136-.178-.359-.4-.662-.44-.246-.028-.511.062-.774.264l-1.844 1.489c-.45.363-.723.82-.84 1.398-.181.904-.132 1.887.169 3.189.486 2.127 1.36 4.16 2.758 6.418 1.698 2.708 3.861 4.953 6.426 6.663.938.622 2.199 1.367 3.618 1.645.071.013.149.022.22.033.752.094 1.355-.085 1.906-.565.341-.325.698-.607 1.048-.877.232-.182.447-.35.66-.533-.006.004-.006 0 0 0 .553-.466.615-.989.18-1.562z"/></defs><g><g transform="translate(-1640 -459)"><use fill="#00932c" xlink:href="#pht5a"/></g></g></svg>